<svg xmlns="http://www.w3.org/2000/svg" width="255.97" height="206.34" viewBox="0 0 255.97 206.34">
  <g id="undraw_quite_town_mg2q_1_" data-name="undraw_quite_town_mg2q (1)" transform="translate(690.625 -114.302)">
    <path id="Path_78287" data-name="Path 78287" d="M625.195,367.142h-.944a81.214,81.214,0,0,0-162.428,0h-.944a82.158,82.158,0,0,1,164.317,0Z" transform="translate(-1080.152 -154.627)" fill="#3f3d56"/>
    <path id="Path_78288" data-name="Path 78288" d="M153.891,268.727l32.042-38.16h63l38.5,37.5-.778.5h.278v78H153.935v-78Z" transform="translate(-844.516 -26.284)" fill="#3f3d56"/>
    <rect id="Rectangle_22598" data-name="Rectangle 22598" width="7.263" height="25.143" transform="translate(-664.083 225.853) rotate(180)" fill="#3f3d56"/>
    <path id="Path_78289" data-name="Path 78289" d="M185.483,229.508l39.5,46.308V346h-71v-79Z" transform="translate(-844.564 -25.725)" fill="#d92332"/>
    <rect id="Rectangle_22599" data-name="Rectangle 22599" width="14.499" height="14.825" transform="translate(-643.211 259.281)" fill="#3f3d56"/>
    <rect id="Rectangle_22600" data-name="Rectangle 22600" width="14.499" height="14.825" transform="translate(-643.211 279.454)" fill="#3f3d56"/>
    <rect id="Rectangle_22601" data-name="Rectangle 22601" width="14.499" height="14.825" transform="translate(-643.211 259.281)" fill="#fff"/>
    <rect id="Rectangle_22602" data-name="Rectangle 22602" width="14.499" height="14.825" transform="translate(-643.211 279.454)" fill="#fff"/>
    <rect id="Rectangle_22603" data-name="Rectangle 22603" width="14.499" height="14.825" transform="translate(-663.263 259.281)" fill="#3f3d56"/>
    <rect id="Rectangle_22604" data-name="Rectangle 22604" width="14.499" height="14.825" transform="translate(-663.263 279.454)" fill="#3f3d56"/>
    <rect id="Rectangle_22605" data-name="Rectangle 22605" width="14.499" height="14.825" transform="translate(-663.263 259.281)" fill="#fff"/>
    <rect id="Rectangle_22606" data-name="Rectangle 22606" width="14.499" height="14.825" transform="translate(-663.263 279.454)" fill="#fff"/>
    <rect id="Rectangle_22607" data-name="Rectangle 22607" width="14.499" height="14.825" transform="translate(-683.316 259.281)" fill="#3f3d56"/>
    <rect id="Rectangle_22608" data-name="Rectangle 22608" width="14.499" height="14.825" transform="translate(-683.316 279.454)" fill="#3f3d56"/>
    <rect id="Rectangle_22609" data-name="Rectangle 22609" width="14.499" height="14.825" transform="translate(-683.316 259.281)" fill="#fff"/>
    <rect id="Rectangle_22610" data-name="Rectangle 22610" width="14.499" height="14.825" transform="translate(-683.316 279.454)" fill="#fff"/>
    <rect id="Rectangle_22611" data-name="Rectangle 22611" width="6.697" height="16.37" transform="translate(-534.365 114.302)" fill="#d92332"/>
    <rect id="Rectangle_22612" data-name="Rectangle 22612" width="55.808" height="191.235" transform="translate(-584.22 129.184)" fill="#d92332"/>
    <rect id="Rectangle_22613" data-name="Rectangle 22613" width="23.067" height="191.235" transform="translate(-528.412 129.184)" fill="#3f3d56"/>
    <rect id="Rectangle_22614" data-name="Rectangle 22614" width="8.499" height="8.499" transform="translate(-574.182 145.938)" fill="#fff"/>
    <rect id="Rectangle_22615" data-name="Rectangle 22615" width="8.499" height="8.499" transform="translate(-560.489 145.938)" fill="#fff"/>
    <rect id="Rectangle_22616" data-name="Rectangle 22616" width="8.499" height="8.499" transform="translate(-546.796 145.938)" fill="#fff"/>
    <rect id="Rectangle_22617" data-name="Rectangle 22617" width="8.185" height="8.185" transform="translate(-573.802 165.646)" fill="#fff"/>
    <rect id="Rectangle_22618" data-name="Rectangle 22618" width="8.929" height="8.185" transform="translate(-560.409 165.646)" fill="#fff"/>
    <rect id="Rectangle_22619" data-name="Rectangle 22619" width="8.185" height="8.185" transform="translate(-546.27 165.646)" fill="#fff"/>
    <rect id="Rectangle_22620" data-name="Rectangle 22620" width="8.499" height="8.499" transform="translate(-573.709 184.656)" fill="#fff"/>
    <rect id="Rectangle_22621" data-name="Rectangle 22621" width="8.499" height="8.499" transform="translate(-560.017 184.656)" fill="#fff"/>
    <rect id="Rectangle_22622" data-name="Rectangle 22622" width="8.499" height="8.499" transform="translate(-546.323 184.656)" fill="#fff"/>
    <rect id="Rectangle_22623" data-name="Rectangle 22623" width="8.929" height="8.185" transform="translate(-573.802 204.338)" fill="#fff"/>
    <rect id="Rectangle_22624" data-name="Rectangle 22624" width="8.185" height="8.185" transform="translate(-559.664 204.338)" fill="#fff"/>
    <rect id="Rectangle_22625" data-name="Rectangle 22625" width="8.929" height="8.185" transform="translate(-546.27 204.338)" fill="#fff"/>
    <rect id="Rectangle_22626" data-name="Rectangle 22626" width="8.499" height="8.499" transform="translate(-573.237 223.374)" fill="#fff"/>
    <rect id="Rectangle_22627" data-name="Rectangle 22627" width="8.499" height="8.499" transform="translate(-559.544 223.374)" fill="#fff"/>
    <rect id="Rectangle_22628" data-name="Rectangle 22628" width="8.499" height="8.499" transform="translate(-545.851 223.374)" fill="#fff"/>
    <rect id="Rectangle_22629" data-name="Rectangle 22629" width="8.185" height="8.185" transform="translate(-573.058 243.032)" fill="#fff"/>
    <rect id="Rectangle_22630" data-name="Rectangle 22630" width="8.929" height="8.185" transform="translate(-559.664 243.032)" fill="#fff"/>
    <rect id="Rectangle_22631" data-name="Rectangle 22631" width="8.185" height="8.185" transform="translate(-545.526 243.032)" fill="#fff"/>
    <rect id="Rectangle_22632" data-name="Rectangle 22632" width="8.499" height="8.499" transform="translate(-572.766 262.093)" fill="#fff"/>
    <rect id="Rectangle_22633" data-name="Rectangle 22633" width="8.499" height="8.499" transform="translate(-559.072 262.093)" fill="#fff"/>
    <rect id="Rectangle_22634" data-name="Rectangle 22634" width="8.499" height="8.499" transform="translate(-545.379 262.093)" fill="#fff"/>
    <rect id="Rectangle_22635" data-name="Rectangle 22635" width="8.185" height="8.185" transform="translate(-572.314 281.725)" fill="#fff"/>
    <rect id="Rectangle_22636" data-name="Rectangle 22636" width="8.929" height="8.185" transform="translate(-558.92 281.725)" fill="#fff"/>
    <rect id="Rectangle_22637" data-name="Rectangle 22637" width="8.929" height="16.37" transform="translate(-558.92 304.049)" fill="#fff"/>
    <rect id="Rectangle_22638" data-name="Rectangle 22638" width="8.185" height="8.185" transform="translate(-544.782 281.725)" fill="#fff"/>
    <rect id="Rectangle_22639" data-name="Rectangle 22639" width="3.721" height="16.37" transform="translate(-528.412 114.302)" fill="#3f3d56"/>
    <rect id="Rectangle_22640" data-name="Rectangle 22640" width="6.61" height="9.795" transform="translate(-463.457 198.349)" fill="#d92332"/>
    <rect id="Rectangle_22641" data-name="Rectangle 22641" width="56.189" height="113.338" transform="translate(-513.507 207.304)" fill="#d92332"/>
    <rect id="Rectangle_22642" data-name="Rectangle 22642" width="22.664" height="113.338" transform="translate(-457.319 207.304)" fill="#3f3d56"/>
    <rect id="Rectangle_22643" data-name="Rectangle 22643" width="8.499" height="8.499" transform="translate(-502.411 223.374)" fill="#fff"/>
    <rect id="Rectangle_22644" data-name="Rectangle 22644" width="8.499" height="8.499" transform="translate(-488.718 223.374)" fill="#fff"/>
    <rect id="Rectangle_22645" data-name="Rectangle 22645" width="8.499" height="8.499" transform="translate(-475.026 223.374)" fill="#fff"/>
    <rect id="Rectangle_22646" data-name="Rectangle 22646" width="8.929" height="8.185" transform="translate(-502.369 243.032)" fill="#fff"/>
    <rect id="Rectangle_22647" data-name="Rectangle 22647" width="8.185" height="8.185" transform="translate(-488.23 243.032)" fill="#fff"/>
    <rect id="Rectangle_22648" data-name="Rectangle 22648" width="8.185" height="8.185" transform="translate(-474.837 243.032)" fill="#fff"/>
    <rect id="Rectangle_22649" data-name="Rectangle 22649" width="8.499" height="8.499" transform="translate(-501.939 262.093)" fill="#fff"/>
    <rect id="Rectangle_22650" data-name="Rectangle 22650" width="8.499" height="8.499" transform="translate(-488.247 262.093)" fill="#fff"/>
    <rect id="Rectangle_22651" data-name="Rectangle 22651" width="8.499" height="8.499" transform="translate(-474.553 262.093)" fill="#fff"/>
    <rect id="Rectangle_22652" data-name="Rectangle 22652" width="8.185" height="8.185" transform="translate(-501.625 281.725)" fill="#fff"/>
    <rect id="Rectangle_22653" data-name="Rectangle 22653" width="8.929" height="8.185" transform="translate(-488.23 281.725)" fill="#fff"/>
    <rect id="Rectangle_22654" data-name="Rectangle 22654" width="8.929" height="16.37" transform="translate(-488.23 304.049)" fill="#fff"/>
    <rect id="Rectangle_22655" data-name="Rectangle 22655" width="8.185" height="8.185" transform="translate(-474.093 281.725)" fill="#fff"/>
    <rect id="Rectangle_22656" data-name="Rectangle 22656" width="3.777" height="9.515" transform="translate(-457.319 198.349)" fill="#3f3d56"/>
  </g>
</svg>
