<svg xmlns="http://www.w3.org/2000/svg" width="281" height="266.289" viewBox="0 0 281 266.289">
  <g id="onboarding-8" transform="translate(-26.158 -130.639)">
    <g id="undraw_Connected_re_lmq2" transform="translate(26.158 130.639)">
      <path id="Path_78173" data-name="Path 78173" d="M380.514,196.554a50.7,50.7,0,0,1-21.747,41.661,50.1,50.1,0,0,1-5.931,3.567c-.683.35-1.37.683-2.07,1-.63.289-1.265.56-1.908.818a50.953,50.953,0,0,1-25.2,3.361q-2.219-.263-4.381-.722l-.188-.039a49.593,49.593,0,0,1-8.819-2.744,50.775,50.775,0,1,1,70.241-46.9Z" transform="translate(-278.957 -145.781)" fill="#f1f1f1"/>
      <path id="Path_78174" data-name="Path 78174" d="M383.975,234.376c-.044-.053-.092-.1-.14-.149a14.637,14.637,0,0,0-20.588-.21c-.031.026-.057.053-.083.079s-.066.061-.1.092a14.63,14.63,0,0,0-4.3,10.364v9.191a1.972,1.972,0,0,0,1.969,1.969h25.385a1.972,1.972,0,0,0,1.969-1.969v-9.191A14.6,14.6,0,0,0,383.975,234.376Z" transform="translate(-323.839 -193.078)" fill="#2f2e41"/>
      <circle id="Ellipse_296" data-name="Ellipse 296" cx="10.75" cy="10.75" r="10.75" transform="translate(39.432 41.044)" fill="#ffb7b7"/>
      <path id="Path_78175" data-name="Path 78175" d="M389.929,246.625l-1.269-8.867a1.11,1.11,0,0,0-.39-.7,1.148,1.148,0,0,0-.232-.144,22.2,22.2,0,0,0-19.59-.009,1.071,1.071,0,0,0-.241.153c-.026.022-.052.048-.079.074a1.108,1.108,0,0,0-.306.661l-.849,8.88a1.1,1.1,0,0,0,.28.84,1.084,1.084,0,0,0,.63.341.8.8,0,0,0,.179.018h2.153a1.1,1.1,0,0,0,.993-.63l.932-2a.654.654,0,0,1,1.243.2l.184,1.471a1.1,1.1,0,0,0,1.086.958h14.193a1.052,1.052,0,0,0,.53-.14,1.072,1.072,0,0,0,.552-1.112Z" transform="translate(-328.449 -195.746)" fill="#2f2e41"/>
      <path id="Path_78176" data-name="Path 78176" d="M442.356,327.4l3.046,10.2a50.093,50.093,0,0,1-5.93,3.567c-.683.35-1.37.683-2.07,1l-3.156-13.528-1.225-5.248,7.878-.875Z" transform="translate(-365.592 -245.162)" fill="#ffb7b7"/>
      <path id="Path_78177" data-name="Path 78177" d="M359.705,329.81l-.263,13.778-.114,6.1a49.593,49.593,0,0,1-8.819-2.744l1.046-13.051.263-3.291Z" transform="translate(-319.194 -249.267)" fill="#ffb7b7"/>
      <path id="Path_78178" data-name="Path 78178" d="M394.7,315.111l-7.913,1.186.1,1.3.954,13.1a50.954,50.954,0,0,1-25.2,3.361q-2.219-.263-4.381-.722c.648-2.722,1.208-5.173.517-5.655a5.246,5.246,0,0,1-.591-.481c-3.226-3.077-2.035-10.023-2.035-10.023l-5.852.324-2.026.114s.875-14.005,4.814-14.005H357.9l23.2-2.188s6.565-2.188,8.316.875c.919,1.606,2.556,5.011,3.908,7.891,1.225,2.617,2.219,4.8,2.219,4.8Z" transform="translate(-317.934 -232.875)" fill="#2f2e41"/>
      <path id="Path_78179" data-name="Path 78179" d="M790.531,197.118a50.7,50.7,0,0,1-21.394,40.857l-.35.245c-.122.088-.249.175-.376.258q-1.1.762-2.25,1.457-1.615.985-3.3,1.851l-.109.053q-.971.5-1.961.945l-.061.026c-.153.07-.315.144-.473.21-1.221.543-2.468,1.037-3.738,1.475q-1.622.571-3.291,1.024a49.777,49.777,0,0,1-6.937,1.392,50.593,50.593,0,0,1-6.022.411c-.167,0-.333,0-.5,0-1.1,0-2.193-.035-3.274-.105-.945-.061-1.882-.144-2.81-.258-1.431-.171-2.845-.4-4.237-.7-.061-.009-.122-.022-.184-.035s-.1-.022-.149-.031c-1.4-.293-2.779-.652-4.131-1.063q-1.911-.578-3.751-1.3c-.315-.123-.626-.245-.937-.376-.774-.324-1.54-.661-2.293-1.024-.219-.1-.433-.206-.648-.311-.727-.355-1.444-.727-2.144-1.12q-1.267-.7-2.49-1.475c-1.029-.648-2.035-1.33-3.011-2.053a50.77,50.77,0,1,1,80.825-40.358Z" transform="translate(-509.534 -145.786)" fill="#f1f1f1"/>
      <path id="Path_78180" data-name="Path 78180" d="M775.352,336.132c-1.4-.293-2.779-.652-4.132-1.064l4.644-28.794,4.81-.149,8.723-.276,4.473-.14s3.173,13.944,5.593,29.739a49.777,49.777,0,0,1-6.937,1.392,50.588,50.588,0,0,1-6.022.411c-.167,0-.333,0-.5,0-1.1,0-2.193-.035-3.274-.105-.945-.061-1.882-.144-2.81-.258-1.431-.171-2.845-.4-4.237-.7-.061-.009-.122-.022-.184-.035S775.4,336.141,775.352,336.132Z" transform="translate(-555.774 -235.714)" fill="#cbcbcb"/>
      <path id="Path_78181" data-name="Path 78181" d="M765.388,335.838c-.061-.009-.122-.022-.184-.035s-.1-.022-.149-.031c-1.4-.293-2.779-.652-4.132-1.064q-1.911-.578-3.751-1.3c-.315-.122-.626-.245-.937-.376-.774-.324-1.54-.661-2.293-1.024-.219-.1-.433-.206-.648-.311l-.385-21.559,11.817-5.064s.039.315,5.65.7C771.445,309.249,765.388,335.838,765.388,335.838Z" transform="translate(-545.478 -235.355)" fill="#2f2e41"/>
      <path id="Path_78182" data-name="Path 78182" d="M830.229,307.669,828,319.376l.21,10.587q-.971.5-1.961.945l-.061.026c-.153.07-.315.144-.473.21-1.221.543-2.469,1.037-3.738,1.475q-1.622.571-3.291,1.024a49.775,49.775,0,0,1-6.937,1.392,50.587,50.587,0,0,1-6.022.411l-.232-18.763c-.49-6.049,1.134-10.049,3.125-12.64C819.235,302.627,819,302.5,819,302.5l11.252,5.064Z" transform="translate(-574.999 -233.909)" fill="#2f2e41"/>
      <path id="Path_78183" data-name="Path 78183" d="M752.514,318.329l-.8,21.581c-.315-.123-.626-.245-.937-.376-.775-.324-1.54-.661-2.293-1.024-.219-.1-.433-.206-.648-.311-.727-.355-1.444-.727-2.144-1.12q-1.267-.7-2.49-1.475l4.25-18.964Z" transform="translate(-540.017 -241.861)" fill="#2f2e41"/>
      <path id="Path_78184" data-name="Path 78184" d="M860.273,332.644l-.35.245c-.122.088-.249.175-.376.258q-1.1.762-2.25,1.457-1.615.985-3.3,1.851l-.109.053q-1,.514-2.021.972h0l-.8-21.656,4.841-1.611.223-.074Z" transform="translate(-600.671 -240.455)" fill="#2f2e41"/>
      <ellipse id="Ellipse_297" data-name="Ellipse 297" cx="12.518" cy="12.486" rx="12.518" ry="12.486" transform="translate(214.826 58.705) rotate(-73.66)" fill="#9f616a"/>
      <path id="Path_78185" data-name="Path 78185" d="M774.391,244.117v-4.872s-3.929-4.627.393-5.793c0,0,1.179-11.656,11.393-6.216,0,0,14.144-2.331,12.572,5.828,0,0,3.536-2.13,2.357,3.309l-2.279,8.762s1.1-5.788-2.435-6.565l-1.964-1.166s-5.5,5.439-13.751-1.166c0,0-3.536-.844-3.143,2.653S774.391,244.117,774.391,244.117Z" transform="translate(-556.637 -190.773)" fill="#2f2e41"/>
      <path id="Path_78186" data-name="Path 78186" d="M585.52,546.553a50.7,50.7,0,0,1-21.748,41.661c-.122.088-.249.175-.376.258q-1.1.762-2.25,1.457-1.615.985-3.3,1.851c-.683.35-1.37.683-2.07,1-.175.079-.354.162-.534.236-1.221.543-2.469,1.037-3.738,1.475a49.987,49.987,0,0,1-10.228,2.416,50.9,50.9,0,0,1-6.521.416c-1.1,0-2.193-.035-3.274-.1-.945-.061-1.882-.144-2.81-.258-1.493-.179-2.967-.42-4.42-.731-.048-.009-.1-.022-.149-.031a49.592,49.592,0,0,1-8.819-2.744c-.774-.324-1.54-.661-2.293-1.024q-1.425-.67-2.792-1.431a50.773,50.773,0,1,1,75.327-44.445Z" transform="translate(-394.241 -342.597)" fill="#f1f1f1"/>
      <circle id="Ellipse_298" data-name="Ellipse 298" cx="11.337" cy="11.337" r="11.337" transform="translate(127.778 193.795)" fill="#ffb8b8"/>
      <path id="Path_78187" data-name="Path 78187" d="M580.421,682.069q-2.239-.269-4.42-.731l1.379-31.022.2-.206,2.823-2.981h8.977l3.313,3.208.28.276,7.086,6.788,3.2,22.2a49.98,49.98,0,0,1-10.228,2.416,50.9,50.9,0,0,1-6.521.416c-1.1,0-2.193-.035-3.274-.105C582.285,682.266,581.348,682.182,580.421,682.069Z" transform="translate(-445.995 -427.707)" fill="#cbcbcb"/>
      <path id="Path_78188" data-name="Path 78188" d="M546.486,681.177q-1.424-.67-2.792-1.431c-.092-8.4-.153-13.983-.153-13.983l1.068-.652.039-.017,12.119-7.362,2.543-4.132.013.149.748,8.71a151.745,151.745,0,0,1,4.906,23.507c-.945-.061-1.882-.144-2.81-.258-1.492-.179-2.967-.42-4.42-.731-.048-.009-.1-.022-.149-.031a49.6,49.6,0,0,1-8.819-2.744C548,681.877,547.238,681.54,546.486,681.177Z" transform="translate(-427.741 -431.345)" fill="#2f2e41"/>
      <path id="Path_78189" data-name="Path 78189" d="M623.764,683.239a49.983,49.983,0,0,1-10.228,2.416,39.943,39.943,0,0,1-.53-8.556c.945-15.113-1.234-23.5-.289-23.5l.481.376,5.948,4.7,7.83,2.871h0l5.388,1.974.95.35v.451c0,1.558.013,7.011.092,14.355q-1.615.985-3.3,1.851c-.683.35-1.37.683-2.07,1-.175.079-.355.162-.534.236Q625.67,682.578,623.764,683.239Z" transform="translate(-466.505 -431.345)" fill="#2f2e41"/>
      <path id="Path_78190" data-name="Path 78190" d="M568.566,597.393s.963-1.692.739-7.343,8.381-2.455,15.572-2.994,5.668,9.434,5.668,9.434.519-.593,1.629-5.406-1.411-9.61-1.411-9.61c-.743-5.058-4.745-3.437-4.745-3.437a2.1,2.1,0,0,1,1.557,2.355c-1.632-2.861-5.634-1.24-5.634-1.24-5.338-3.35-10.748,1.062-10.748,1.062-6.449,1.464-2.667,6.592-2.667,6.592C562.041,590.083,568.566,597.393,568.566,597.393Z" transform="translate(-440.177 -388.714)" fill="#2f2e41"/>
      <path id="Path_78191" data-name="Path 78191" d="M531.32,690.985c.167-3.847.241-6.329.153-6.674-.451-1.8,5.7-4.219,6.263-4.434l.039-.018,1.252.67.586,15.414q-1.425-.67-2.792-1.431a50.415,50.415,0,0,1-5.5-3.528Z" transform="translate(-420.87 -446.112)" fill="#2f2e41"/>
      <path id="Path_78192" data-name="Path 78192" d="M650.188,688.8q-1.615.985-3.3,1.851c-.683.35-1.37.683-2.07,1-.175.079-.354.162-.534.236L642.31,672.44l1.151-.84s.105.026.293.07h0a22.783,22.783,0,0,1,5.388,1.974,3.375,3.375,0,0,1,.95.8.973.973,0,0,1,.223.692c-.052.508.823,5.322,2.118,12.206Q651.335,688.1,650.188,688.8Z" transform="translate(-483.283 -441.467)" fill="#2f2e41"/>
      <path id="Path_78193" data-name="Path 78193" d="M133.827,381.19H115v-84.4h.875v83.526h17.951Z" transform="translate(-64.65 -166.89)" fill="#f1f1f1" stroke="#2f2e41" stroke-width="1"/>
      <path id="Path_78194" data-name="Path 78194" d="M502.819,380.184H483.992v-.875h17.951V295h.875Z" transform="translate(-272.147 -165.885)" fill="#2f2e41"/>
      <circle id="Ellipse_299" data-name="Ellipse 299" cx="11.57" cy="11.57" r="11.57" transform="translate(218.66 88.187)" fill="#d92332"/>
      <path id="Path_78195" data-name="Path 78195" d="M519.031,226.543l-3.463-4.453,2.014-1.566,1.639,2.108,5.54-5.847,1.852,1.755Z" transform="translate(-289.903 -121.902)" fill="#fff"/>
      <circle id="Ellipse_300" data-name="Ellipse 300" cx="11.57" cy="11.57" r="11.57" transform="translate(39.218 89.09)" fill="#d92332"/>
      <path id="Path_78196" data-name="Path 78196" d="M109.031,228.606l-3.463-4.453,2.014-1.566,1.639,2.108,5.54-5.847,1.852,1.755Z" transform="translate(-59.346 -123.062)" fill="#fff"/>
      <circle id="Ellipse_301" data-name="Ellipse 301" cx="11.57" cy="11.57" r="11.57" transform="translate(128.939 243.148)" fill="#d92332"/>
      <path id="Path_78197" data-name="Path 78197" d="M314.031,580.606l-3.463-4.453,2.014-1.566,1.639,2.108,5.54-5.847,1.852,1.755Z" transform="translate(-174.624 -321.004)" fill="#fff"/>
    </g>
    <g id="undraw_select_house_qbag" transform="translate(144.709 219.323)">
      <ellipse id="Ellipse_302" data-name="Ellipse 302" cx="1.153" cy="20.503" rx="1.153" ry="20.503" transform="translate(49.589 93.415) rotate(-89.908)" fill="#e6e6e6"/>
      <rect id="Rectangle_22561" data-name="Rectangle 22561" width="3.978" height="13.77" transform="translate(34.272 0.33)" fill="#3e3e3e"/>
      <path id="Path_78199" data-name="Path 78199" d="M40.877,301.218,31.2,289.708l-19.421.177L0,301.361l.238.153H.153v23.868h40.7V301.514Z" transform="translate(0 -289.708)" fill="#3e3e3e"/>
      <path id="Path_78200" data-name="Path 78200" d="M103.562,289.825,91.475,304v21.478H113.2V301.3Z" transform="translate(-72.35 -289.801)" fill="#d92332"/>
      <rect id="Rectangle_22562" data-name="Rectangle 22562" width="4.437" height="3.922" transform="translate(27.846 23.796)" fill="#3f3d56"/>
      <rect id="Rectangle_22563" data-name="Rectangle 22563" width="4.437" height="3.86" transform="translate(27.846 17.007)" fill="#3f3d56"/>
      <rect id="Rectangle_22564" data-name="Rectangle 22564" width="4.437" height="3.922" transform="translate(27.846 23.796)" fill="#fff"/>
      <rect id="Rectangle_22565" data-name="Rectangle 22565" width="4.437" height="3.86" transform="translate(27.846 17.007)" fill="#fff"/>
      <rect id="Rectangle_22566" data-name="Rectangle 22566" width="4.437" height="3.922" transform="translate(8.128 22.755)" fill="#3f3d56"/>
      <rect id="Rectangle_22567" data-name="Rectangle 22567" width="4.437" height="3.86" transform="translate(8.128 15.967)" fill="#3f3d56"/>
      <rect id="Rectangle_22568" data-name="Rectangle 22568" width="4.437" height="3.922" transform="translate(8.128 22.755)" fill="#fff"/>
      <rect id="Rectangle_22569" data-name="Rectangle 22569" width="4.437" height="3.86" transform="translate(8.128 15.967)" fill="#fff"/>
    </g>
  </g>
</svg>
