<svg xmlns="http://www.w3.org/2000/svg" width="636.395" height="605.302" viewBox="0 0 636.395 605.302">
  <g id="Group_39936" data-name="Group 39936" transform="translate(-309.842 -389.667)">
    <g id="undraw_location_review_dmxd" transform="translate(309.842 389.667)">
      <path id="Path_78052" data-name="Path 78052" d="M537.239,510.78A132.14,132.14,0,1,1,669.432,378.64,132.167,132.167,0,0,1,537.239,510.78Zm0-261.763A129.623,129.623,0,1,0,666.914,378.64,129.649,129.649,0,0,0,537.239,249.017Z" transform="translate(-51.395 94.521)" fill="#3f3d56"/>
      <path id="Path_78089" data-name="Path 78089" d="M415.237,405.106,327.406,300.618l-176.3,1.611L44.156,406.4l2.161,1.389h-.772V624.461H415V407.788Z" transform="translate(-22.282 -87.828)" fill="#3f3d56"/>
      <path id="Path_78090" data-name="Path 78090" d="M383.18,300.912,273.455,429.553V624.532H470.682V405.082Z" transform="translate(-77.964 -87.899)" fill="#d92332"/>
      <rect id="Rectangle_22543" data-name="Rectangle 22543" width="40.279" height="35.602" transform="translate(274.659 428.807)" fill="#fef6f7"/>
      <rect id="Rectangle_22544" data-name="Rectangle 22544" width="40.279" height="35.037" transform="translate(274.659 367.184)" fill="#fef6f7"/>
      <rect id="Rectangle_22545" data-name="Rectangle 22545" width="40.279" height="35.602" transform="translate(95.657 419.36)" fill="#fff"/>
      <rect id="Rectangle_22546" data-name="Rectangle 22546" width="40.279" height="35.037" transform="translate(95.657 357.737)" fill="#fff"/>
      <rect id="Rectangle_22547" data-name="Rectangle 22547" width="636.395" height="1.514" transform="translate(0 550.783)" fill="#3f3d56"/>
      <path id="Path_78103" data-name="Path 78103" d="M746.1,306.657H478.686a4.958,4.958,0,0,1-4.952-4.952V178.914a4.958,4.958,0,0,1,4.952-4.952H746.1a4.958,4.958,0,0,1,4.952,4.952V301.7A4.958,4.958,0,0,1,746.1,306.657ZM478.686,175.943a2.975,2.975,0,0,0-2.971,2.971V301.7a2.975,2.975,0,0,0,2.971,2.971H746.1a2.975,2.975,0,0,0,2.971-2.971V178.914a2.975,2.975,0,0,0-2.971-2.971Z" transform="translate(-251.14 -96.067)" fill="#e6e6e6"/>
      <circle id="Ellipse_259" data-name="Ellipse 259" cx="20.173" cy="20.173" r="20.173" transform="translate(246.944 101.221)" fill="#d92332"/>
      <path id="Path_78104" data-name="Path 78104" d="M592.989,213.649a3.362,3.362,0,1,0,0,6.724h158.5a3.362,3.362,0,0,0,0-6.724Z" transform="translate(-279.283 -105.705)" fill="#e6e6e6"/>
      <path id="Path_78105" data-name="Path 78105" d="M592.989,240.292a3.362,3.362,0,1,0,0,6.724h68.2a3.362,3.362,0,0,0,0-6.724Z" transform="translate(-279.283 -112.174)" fill="#e6e6e6"/>
      <path id="Path_78106" data-name="Path 78106" d="M510.613,282.885c-2.558,0-4.639,1.508-4.639,3.362s2.081,3.362,4.639,3.362h218.68c2.557,0,4.639-1.508,4.639-3.362s-2.081-3.362-4.639-3.362Z" transform="translate(-258.969 -122.518)" fill="#e6e6e6"/>
      <path id="Path_78107" data-name="Path 78107" d="M510.613,309.527c-2.558,0-4.639,1.508-4.639,3.362s2.081,3.362,4.639,3.362h218.68c2.557,0,4.639-1.508,4.639-3.362s-2.081-3.362-4.639-3.362Z" transform="translate(-258.969 -128.987)" fill="#e6e6e6"/>
      <circle id="Ellipse_260" data-name="Ellipse 260" cx="35.876" cy="35.876" r="35.876" transform="translate(410.925 0)" fill="#d92332"/>
      <path id="Path_78108" data-name="Path 78108" d="M582.9,111.945l-11.218-19.43-11.217-19.43h44.87l-11.217,19.43Z" transform="translate(-136.103 -17.748)" fill="#d92332"/>
      <circle id="Ellipse_261" data-name="Ellipse 261" cx="12.872" cy="12.872" r="12.872" transform="translate(434.219 22.78)" fill="#fef6f7"/>
    </g>
    <g id="Group_39837" data-name="Group 39837" transform="translate(725.414 782.698)">
      <path id="Path_78061" data-name="Path 78061" d="M568.7,345.207H551.9V295.56a5.508,5.508,0,0,1,5.5-5.5h5.8a5.507,5.507,0,0,1,5.5,5.5Z" transform="translate(-415.603 -290.059)" fill="#3f3d56"/>
      <path id="Path_78062" data-name="Path 78062" d="M603.3,429.918H442.7l-.577-90.515a10.443,10.443,0,0,1,3.14-7.51l40.344-39.3a10.346,10.346,0,0,1,7.155-2.947l67.523-.617a10.456,10.456,0,0,1,8.049,3.7l.006.007,32.071,39.331a12.866,12.866,0,0,1,2.888,8.111Z" transform="translate(-442.121 -288.889)" fill="#3f3d56"/>
      <path id="Path_78063" data-name="Path 78063" d="M589.674,428.934h-86.3v-81.12a10.4,10.4,0,0,1,2.485-6.743l37.5-43.963h0a10.37,10.37,0,0,1,7.9-3.648h.04a10.373,10.373,0,0,1,7.917,3.707l28.026,33.364a10.4,10.4,0,0,1,2.434,6.683Z" transform="translate(-426.726 -287.718)" fill="#d92332"/>
      <path id="Path_78064" data-name="Path 78064" d="M546.851,381.815H534.365a3.06,3.06,0,0,1-3.056-3.056V368.289a3.06,3.06,0,0,1,3.056-3.056h12.487a3.059,3.059,0,0,1,3.056,3.056v10.469A3.059,3.059,0,0,1,546.851,381.815Z" transform="translate(-420.955 -270.765)" fill="#fef6f7"/>
      <path id="Path_78065" data-name="Path 78065" d="M546.851,359.824H534.365a3.059,3.059,0,0,1-3.056-3.056V346.542a3.06,3.06,0,0,1,3.056-3.056h12.487a3.06,3.06,0,0,1,3.056,3.056v10.226A3.059,3.059,0,0,1,546.851,359.824Z" transform="translate(-420.955 -276.443)" fill="#fef6f7"/>
      <path id="Path_78066" data-name="Path 78066" d="M483.68,378.481H471.194a3.06,3.06,0,0,1-3.056-3.056V364.956a3.06,3.06,0,0,1,3.056-3.056H483.68a3.059,3.059,0,0,1,3.056,3.056v10.469A3.059,3.059,0,0,1,483.68,378.481Z" transform="translate(-437.49 -271.634)" fill="#fff"/>
      <path id="Path_78067" data-name="Path 78067" d="M483.68,356.49H471.194a3.06,3.06,0,0,1-3.056-3.056V343.209a3.06,3.06,0,0,1,3.056-3.056H483.68a3.059,3.059,0,0,1,3.056,3.056v10.225A3.059,3.059,0,0,1,483.68,356.49Z" transform="translate(-437.49 -277.313)" fill="#fff"/>
    </g>
  </g>
</svg>
