<?xml version="1.0" encoding="utf-8"?>
<!-- Generator: Adobe Illustrator 24.1.2, SVG Export Plug-In . SVG Version: 6.00 Build 0)  -->
<svg version="1.1" id="Layer_1" xmlns="http://www.w3.org/2000/svg" xmlns:xlink="http://www.w3.org/1999/xlink" x="0px" y="0px"
	 viewBox="0 0 1000 1000" style="enable-background:new 0 0 1000 1000;" xml:space="preserve">
<style type="text/css">
	.st0{fill:#FFFFFF;}
	.st1{fill:#9DCC95;}
</style>
<g>
	<g>
		<g>
			<g>
				<path class="st0" d="M249.11,558.93h-15.26v57.27h15.79c17.01,0,27.37-9.91,27.37-28.86
					C277.02,568.39,266.66,558.93,249.11,558.93z M248.46,607.96h-4.46v-40.79h4.46c11.52,0,18.13,6.1,18.13,20.17
					C266.58,601.43,259.98,607.96,248.46,607.96z"/>
				<path class="st0" d="M334.56,558.93v32.93c0,12.46-4.83,16.57-11.83,16.57c-6.94,0-11.6-4.11-11.6-16.57v-32.93h-10.15v32.16
					c0,18.81,8.48,26.16,21.75,26.16c13.27,0,21.61-7.35,21.61-26.16v-32.16H334.56z"/>
				<path class="st0" d="M396.13,584.79l-7.73-3.25c-4.75-1.94-9.11-3.6-9.11-8.1c0-4.19,3.55-6.72,8.97-6.72
					c4.9,0,8.79,1.81,12.43,4.91l5.23-6.45c-4.49-4.53-10.96-7.3-17.66-7.3c-11.18,0-19.23,7.02-19.23,16.15
					c0,8.37,5.94,12.84,11.57,15.19l7.84,3.39c5.2,2.2,8.89,3.72,8.89,8.43c0,4.45-3.53,7.39-9.97,7.39
					c-5.33,0-10.84-2.63-14.93-6.53l-5.91,6.97c5.42,5.33,12.88,8.38,20.62,8.38c12.85,0,20.56-7.74,20.56-17.03
					C407.7,591.94,402.93,587.62,396.13,584.79z"/>
				<path class="st0" d="M424.1,558.93v8.55h16.55v48.72h10.14v-48.72h16.54v-8.55H424.1z"/>
				<path class="st0" d="M499.74,607.65V590.7h20.6v-8.54h-20.6v-14.68h24.3v-8.55h-34.46v57.27h35.34v-8.55H499.74z"/>
				<path class="st0" d="M559.55,607.65v-48.72h-10.17v57.27h33.93v-8.55H559.55z"/>
				<path class="st0" d="M616.2,607.65v-48.72h-10.16v57.27h33.94v-8.55H616.2z"/>
				<path class="st0" d="M685.64,558.93h-11.92l-18.67,57.27h10.37l4.47-15.52l2.3-7.96l2.02-6.99c1.83-6.05,3.5-12.54,5.08-18.87
					h0.34c1.69,6.28,3.36,12.82,5.19,18.87l2,6.99l2.29,7.96l4.44,15.52h10.74L685.64,558.93z M666.08,592.72v7.96h26.96v-7.96
					H666.08z"/>
				<path class="st0" d="M742.83,558.93h-19.31v57.27h10.17v-22.37h9.14c3.5,0,6.77-0.49,9.63-1.49
					c6.88-2.39,11.45-7.74,11.45-16.41C763.92,563.14,754.73,558.93,742.83,558.93z M741.78,585.7h-8.08v-18.64h8.08
					c7.85,0,12.12,2.28,12.12,8.87C753.9,582.43,749.63,585.7,741.78,585.7z M752.47,592.34l-4.19-7.3l-7.35,6.07l1.51,2.72
					l12.3,22.37h11.41L752.47,592.34z"/>
			</g>
		</g>
		<g>
			<g>
				<path class="st0" d="M351.86,674.89c-1.35,1.5-2.79,2.28-4.69,2.28c-3.99,0-6.49-3.33-6.49-8.49c0-5.14,2.51-8.38,6.58-8.38
					c1.7,0,3.06,0.77,4.07,1.91l0.75-0.86c-0.99-1.14-2.66-2.22-4.82-2.22c-4.72,0-7.93,3.69-7.93,9.57c0,5.89,3.19,9.66,7.76,9.66
					c2.42,0,4.09-1,5.52-2.66L351.86,674.89z"/>
				<path class="st0" d="M363.32,676.9v-17.44h-1.3v18.55h9.85v-1.11H363.32z"/>
				<path class="st0" d="M382.09,676.9v-8.17h7.43v-1.13h-7.43v-7.02h8.85v-1.12H380.8v18.55h10.42v-1.11H382.09z"/>
				<path class="st0" d="M406.23,659.46h-1.29l-6.54,18.55h1.31l2.19-6.36l0.38-1.09l1.19-3.48c0.75-2.18,1.4-4.14,2.04-6.39h0.13
					c0.64,2.25,1.3,4.21,2.05,6.39l1.17,3.48l0.38,1.09l2.15,6.36h1.38L406.23,659.46z M401.4,670.56v1.09h8.31v-1.09H401.4z"/>
				<path class="st0" d="M432.54,659.46v11.38c0,1.8,0.1,3.59,0.16,5.41h-0.11l-2.1-3.71l-7.8-13.08h-1.36v18.55h1.22v-11.52
					c0-1.8-0.09-3.49-0.17-5.25h0.12l2.1,3.69l7.8,13.08h1.36v-18.55H432.54z"/>
				<path class="st0" d="M444.85,659.46v18.55h1.28v-18.55H444.85z"/>
				<path class="st0" d="M468.45,659.46v11.38c0,1.8,0.08,3.59,0.16,5.41h-0.11l-2.11-3.71l-7.8-13.08h-1.35v18.55h1.22v-11.52
					c0-1.8-0.09-3.49-0.17-5.25h0.11l2.11,3.69l7.8,13.08h1.36v-18.55H468.45z"/>
				<path class="st0" d="M487.35,668.9v1.09h4.42v5.79c-0.89,0.87-2.47,1.39-4.14,1.39c-4.22,0-6.71-3.33-6.71-8.49
					c0-5.14,2.61-8.38,6.86-8.38c2.02,0,3.33,0.87,4.29,1.91l0.75-0.86c-0.99-1.05-2.55-2.22-5.05-2.22c-4.9,0-8.21,3.69-8.21,9.57
					c0,5.89,3.21,9.66,7.97,9.66c2.43,0,4.33-0.86,5.48-2.11v-7.35H487.35z"/>
				<path class="st0" d="M521.53,668.45l-2.79-1.26c-1.37-0.59-3.21-1.4-3.21-3.58c0-2,1.64-3.31,4.08-3.31
					c1.86,0,3.35,0.75,4.43,1.91l0.75-0.86c-1.13-1.21-2.94-2.22-5.18-2.22c-3.08,0-5.39,1.87-5.39,4.56c0,2.75,2.15,3.91,3.76,4.61
					l2.82,1.27c1.83,0.83,3.34,1.56,3.34,3.88c0,2.2-1.78,3.72-4.62,3.72c-2.16,0-4.1-0.99-5.44-2.5l-0.83,0.89
					c1.47,1.64,3.55,2.8,6.27,2.8c3.59,0,5.92-2.16,5.92-5.01C525.44,670.52,523.6,669.37,521.53,668.45z"/>
				<path class="st0" d="M536.26,676.9v-8.17h7.44v-1.13h-7.44v-7.02h8.85v-1.12h-10.15v18.55h10.43v-1.11H536.26z"/>
				<path class="st0" d="M560.39,659.46h-5.3v18.55h1.29v-8.52h4.01c0.46,0,0.9-0.03,1.34-0.08c2.92-0.39,4.77-2.09,4.77-5.05
					C566.49,660.82,564.07,659.46,560.39,659.46z M560.05,668.4h-3.68v-7.85h3.68c3.28,0,5.09,1.02,5.09,3.81
					C565.15,667.1,563.33,668.4,560.05,668.4z M561.73,669.41l-0.39-0.67l-1.24,0.38l0.22,0.37l5.02,8.52h1.5L561.73,669.41z"/>
				<path class="st0" d="M586.14,659.46l-3.44,10.83c-0.71,2.28-1.19,3.99-1.96,6.24h-0.11c-0.76-2.25-1.25-3.96-1.95-6.24
					l-3.44-10.83h-1.38l6.12,18.55h1.39l6.06-18.55H586.14z"/>
				<path class="st0" d="M595.89,659.46v18.55h1.3v-18.55H595.89z"/>
				<path class="st0" d="M619.6,674.89c-1.34,1.5-2.78,2.28-4.69,2.28c-3.99,0-6.47-3.33-6.47-8.49c0-5.14,2.51-8.38,6.58-8.38
					c1.69,0,3.05,0.77,4.05,1.91l0.75-0.86c-0.99-1.14-2.66-2.22-4.82-2.22c-4.72,0-7.92,3.69-7.92,9.57c0,5.89,3.19,9.66,7.75,9.66
					c2.42,0,4.1-1,5.52-2.66L619.6,674.89z"/>
				<path class="st0" d="M631.06,676.9v-8.17h7.44v-1.13h-7.44v-7.02h8.86v-1.12h-10.16v18.55h10.45v-1.11H631.06z"/>
				<path class="st0" d="M656.76,668.45l-2.8-1.26c-1.36-0.59-3.21-1.4-3.21-3.58c0-2,1.65-3.31,4.09-3.31
					c1.85,0,3.34,0.75,4.42,1.91l0.75-0.86c-1.13-1.21-2.94-2.22-5.17-2.22c-3.09,0-5.4,1.87-5.4,4.56c0,2.75,2.16,3.91,3.77,4.61
					l2.81,1.27c1.83,0.83,3.35,1.56,3.35,3.88c0,2.2-1.78,3.72-4.63,3.72c-2.16,0-4.1-0.99-5.44-2.5l-0.83,0.89
					c1.47,1.64,3.55,2.8,6.27,2.8c3.6,0,5.93-2.16,5.93-5.01C660.67,670.52,658.83,669.37,656.76,668.45z"/>
			</g>
		</g>
	</g>
	<line class="st0" x1="498.32" y1="404.51" x2="498.19" y2="404.11"/>
	<path class="st0" d="M494.23,321.8c-50.99,2.98-91.42,45.29-91.42,97.02c0,53.67,43.51,97.18,97.19,97.18c0.54,0,1.08,0,1.62-0.02
		c0.25-4.48,0.5-8.95,0.74-13.44c0.27-5.13,0.49-10.26,0.75-15.38c0.45-8.46,0.9-16.92,1.34-25.38c0.05-0.88,0.09-1.75,0.14-2.65
		c0.07-1.26,1.11-2.24,2.37-2.24h0.04c1.25,0.03,2.25,1.03,2.28,2.27c0.03,1.03,0.05,2.05,0.07,3.07c0.09,4.31,0.17,8.62,0.26,12.93
		c0.1,5.08,0.19,10.16,0.3,15.24c0.09,4.79,0.2,9.58,0.29,14.37l0.21,10.68c47.9-5.1,85.42-45.01,86.73-93.96
		C598.68,364.83,550.82,318.49,494.23,321.8z M531.64,345.97c0.5,3.07,2.27,4.74,5.27,5.23c-3.04,0.47-4.77,2.16-5.26,5.23
		c-0.51-3.01-2.2-4.79-5.29-5.22C529.36,350.72,531.16,349.02,531.64,345.97z M513.86,451.16c-2.23,0.05-4.46-0.04-6.69-0.08
		c-2.97-0.05-5.95-0.07-8.92-0.18c-2.1-0.09-3.44-2.16-2.76-4.14c0.44-1.28,1.71-2.15,3.15-2.13c5.04,0.08,10.07,0.17,15.1,0.27
		c1.79,0.04,3.11,1.37,3.13,3.09C516.9,449.72,515.67,451.1,513.86,451.16z M529.72,411.02c-0.96,4.98-2.41,9.8-4.37,14.5
		c-1.7,4.08-3.84,7.9-6.23,11.62c-1.07,1.67-2.24,2.39-4.33,2.3c-6.29-0.26-12.59-0.27-18.88-0.33c-0.73-0.01-1.11-0.15-1.38-0.92
		c-2.06-5.62-5.44-10.43-9.33-14.91c-5.14-5.91-10.99-11.05-17.24-15.74c-3.93-2.94-8.03-5.63-12.07-8.44
		c-0.15-0.11-0.31-0.24-0.41-0.52c1.32,0.29,2.67,0.53,3.97,0.9c4.99,1.44,9.83,3.25,14.51,5.57c6.52,3.25,12.2,7.53,17,12.96
		c2.08,2.35,3.84,4.99,5.67,7.55c0.02,0.03,0.04,0.05,0.05,0.07c0.12,0.16,0.22,0.3,0.33,0.41c0.17,0.14,0.39,0.22,0.62,0.22
		c0.57,0,1.03-0.46,1.03-1.03c0-0.04,0-0.08-0.01-0.12c-0.07-0.18-0.14-0.35-0.22-0.53c-1.17-2.68-2.65-5.15-4.37-7.5
		c-5.26-7.14-12.09-12.47-19.75-16.78c-7.05-3.98-14.58-6.73-22.45-8.58c-0.3-0.06-0.58-0.19-1.08-0.35
		c1.15-1.28,2.16-2.53,3.31-3.65c3.35-3.3,7.16-5.9,11.68-7.3c0.62-0.19,1.57-0.1,2.13,0.23c4.36,2.61,8.76,5.15,12.94,8.01
		c6.26,4.27,11.5,9.57,15.28,16.22c0.07,0.13,0.14,0.23,0.2,0.33c0.04,0.08,0.1,0.16,0.17,0.23c0.2,0.19,0.47,0.31,0.77,0.31
		c0.59,0,1.08-0.48,1.08-1.08v-0.07c0-0.04-0.01-0.08-0.02-0.11s-0.02-0.06-0.02-0.06l-0.21-0.64v-0.01
		c-3.79-11.47-11.43-20.23-20.24-28.42c3.06-1,5.98-1.96,8.92-2.88c0.25-0.08,0.67,0.05,0.88,0.24
		c6.29,5.49,11.82,11.65,16.39,18.65c4.52,6.95,7.79,14.45,9.15,22.66c0.53,3.22,0.71,6.49,0.89,9.75c0,0,0.02,0.32,0.04,0.85
		c0.02,0.47,0.04,1.09,0.04,1.81c0,1.15-0.03,2.54-0.14,3.83c0,0.01-0.01,0.02-0.01,0.02c-0.01,0.16-0.03,0.32-0.05,0.48
		c0.06,0.46,0.45,0.81,0.93,0.81c0.36,0,0.67-0.2,0.83-0.5c0.04-0.17,0.07-0.34,0.1-0.51c1.33-6.67,1.33-13.35,0.14-20.04
		c-2.1-11.85-7.33-22.27-14.5-31.8c-1.48-1.98-2.94-3.97-4.45-5.93c-0.47-0.61-1.05-1.14-1.71-1.85c2.03-0.31,3.98-0.67,5.95-0.9
		c6.43-0.75,12.86-0.81,19.17,0.81c2.31,0.59,4.52,1.64,6.74,2.54c0.33,0.13,0.62,0.62,0.73,1c1.64,5.85,2.65,11.82,3,17.91
		C531.26,398.59,530.91,404.83,529.72,411.02z M545.7,363.71c-1.02,0.34-2.05,0.75-2.93,1.36c-0.85,0.59-1.64,1.38-2.23,2.23
		c-0.61,0.88-1.05,1.9-1.38,2.93c-0.35,1.01-0.49,2.09-0.7,3.08c-0.66-6.43-4.02-9.62-10.32-10.27c6.38-0.59,9.81-4.09,10.33-10.46
		c0.66,6.32,3.69,9.69,10.24,10.45C547.74,363.24,546.69,363.37,545.7,363.71z M546.27,358.53c-0.53-1.63-1.34-2.61-2.84-2.92
		c1.44-0.34,2.34-1.23,2.8-2.99c0.41,1.78,1.35,2.62,3,2.98C547.64,356,546.59,356.71,546.27,358.53z"/>
	<path class="st0" d="M514.01,430.29c-0.01,0.16-0.03,0.32-0.05,0.48"/>
	<path class="st0" d="M515.82,430.57c-0.03,0.17-0.06,0.34-0.1,0.51"/>
</g>
</svg>
