<svg xmlns="http://www.w3.org/2000/svg" width="218.165" height="146.206" viewBox="0 0 218.165 146.206"><g transform="translate(-233.85 -321.633)"><g transform="translate(233.85 321.633)"><g transform="translate(0 96.826)"><path d="M240.1,558.93H233.85V582.4h6.472c6.972,0,11.218-4.062,11.218-11.828S247.3,558.93,240.1,558.93Zm-.266,20.1H238.01V562.307h1.828c4.722,0,7.431,2.5,7.431,8.267S244.559,579.025,239.838,579.025Z" transform="translate(-233.85 -558.5)" fill="#9dcc95"/><path d="M314.743,558.93v13.5c0,5.107-1.98,6.791-4.849,6.791-2.844,0-4.754-1.684-4.754-6.791v-13.5h-4.16v13.181c0,7.709,3.476,10.722,8.914,10.722s8.857-3.012,8.857-10.722V558.93Z" transform="translate(-273.467 -558.5)" fill="#9dcc95"/><path d="M378.656,568.909l-3.168-1.332c-1.947-.8-3.734-1.475-3.734-3.32,0-1.717,1.455-2.754,3.676-2.754a7.55,7.55,0,0,1,5.094,2.012l2.143-2.644a10.3,10.3,0,0,0-7.238-2.992c-4.582,0-7.881,2.877-7.881,6.619,0,3.43,2.435,5.263,4.742,6.226l3.213,1.389c2.131.9,3.644,1.525,3.644,3.455,0,1.824-1.447,3.029-4.086,3.029a9.223,9.223,0,0,1-6.119-2.676l-2.422,2.857a12.093,12.093,0,0,0,8.451,3.435c5.267,0,8.427-3.172,8.427-6.98C383.4,571.84,381.443,570.069,378.656,568.909Z" transform="translate(-312.145 -557.88)" fill="#9dcc95"/><path d="M424.1,558.93v3.5h6.783V582.4h4.156V562.434h6.779v-3.5Z" transform="translate(-346.126 -558.5)" fill="#9dcc95"/><path d="M493.744,578.9v-6.947h8.443v-3.5h-8.443v-6.017H503.7v-3.5H489.58V582.4h14.484v-3.5h-10.32Z" transform="translate(-384.768 -558.5)" fill="#9dcc95"/><path d="M553.548,578.9V558.93H549.38V582.4h13.906v-3.5h-9.738Z" transform="translate(-420.059 -558.5)" fill="#9dcc95"/><path d="M610.2,578.9V558.93H606.04V582.4h13.91v-3.5H610.2Z" transform="translate(-453.497 -558.5)" fill="#9dcc95"/><path d="M667.587,558.93H662.7L655.05,582.4h4.25l1.832-6.361.943-3.262.828-2.865c.75-2.48,1.434-5.14,2.082-7.734h.139c.693,2.574,1.377,5.254,2.127,7.734l.82,2.865.939,3.262,1.82,6.361h4.4Zm-8.017,13.849v3.262h11.05v-3.262Z" transform="translate(-482.42 -558.5)" fill="#9dcc95"/><path d="M731.434,558.93H723.52V582.4h4.168v-9.168h3.746a12.013,12.013,0,0,0,3.947-.611,6.623,6.623,0,0,0,4.693-6.726C740.078,560.656,736.312,558.93,731.434,558.93ZM731,569.9h-3.312v-7.64H731c3.217,0,4.967.935,4.967,3.635C735.971,568.562,734.221,569.9,731,569.9Zm4.381,2.721-1.717-2.992-3.012,2.488.619,1.115,5.041,9.168h4.677Z" transform="translate(-522.827 -558.5)" fill="#9dcc95"/></g><g transform="translate(43.231 138.324)"><path d="M344.465,665.589a2.458,2.458,0,0,1-1.922.934c-1.635,0-2.66-1.365-2.66-3.48s1.029-3.435,2.7-3.435a2.185,2.185,0,0,1,1.668.783l.307-.352a2.624,2.624,0,0,0-1.975-.91c-1.934,0-3.25,1.512-3.25,3.922s1.307,3.959,3.18,3.959a2.811,2.811,0,0,0,2.262-1.09Z" transform="translate(-339.33 -659.13)" fill="#9dcc95"/><path d="M362.553,666.608V659.46h-.533v7.6h4.037v-.455Z" transform="translate(-352.72 -659.325)" fill="#9dcc95"/><path d="M381.329,666.608v-3.349h3.045V662.8h-3.045v-2.877h3.627v-.459H380.8v7.6h4.271v-.455Z" transform="translate(-363.803 -659.325)" fill="#9dcc95"/><path d="M401.609,659.46h-.529l-2.68,7.6h.537l.9-2.607.156-.447.488-1.426c.307-.893.574-1.7.836-2.619h.053c.262.922.533,1.725.84,2.619l.48,1.426.156.447.881,2.607h.566Zm-1.98,4.549v.447h3.406v-.447Z" transform="translate(-374.19 -659.325)" fill="#9dcc95"/><path d="M425.924,659.46v4.664c0,.738.041,1.471.066,2.217h-.045l-.861-1.521-3.2-5.361h-.557v7.6h.5v-4.721c0-.738-.037-1.43-.07-2.152h.049l.861,1.512,3.2,5.361h.557v-7.6Z" transform="translate(-387.722 -659.325)" fill="#9dcc95"/><path d="M444.85,659.46v7.6h.525v-7.6Z" transform="translate(-401.602 -659.325)" fill="#9dcc95"/><path d="M461.835,659.46v4.664c0,.738.033,1.471.066,2.217h-.045l-.865-1.521-3.2-5.361h-.553v7.6h.5v-4.721c0-.738-.037-1.43-.07-2.152h.045l.865,1.512,3.2,5.361h.557v-7.6Z" transform="translate(-408.914 -659.325)" fill="#9dcc95"/><path d="M482.753,663.134v.447h1.812v2.373a2.5,2.5,0,0,1-1.7.57c-1.73,0-2.75-1.365-2.75-3.48s1.07-3.435,2.812-3.435a2.272,2.272,0,0,1,1.758.783l.307-.352a2.729,2.729,0,0,0-2.07-.91c-2.008,0-3.365,1.512-3.365,3.922s1.316,3.959,3.267,3.959a3,3,0,0,0,2.246-.865v-3.012h-2.32Z" transform="translate(-422.086 -659.13)" fill="#9dcc95"/><path d="M516.644,662.95l-1.143-.516c-.562-.242-1.316-.574-1.316-1.467,0-.82.672-1.357,1.672-1.357a2.416,2.416,0,0,1,1.816.783l.307-.352a2.906,2.906,0,0,0-2.123-.91A1.99,1.99,0,0,0,513.648,661a2.088,2.088,0,0,0,1.541,1.889l1.156.521c.75.34,1.369.639,1.369,1.59,0,.9-.73,1.525-1.893,1.525a2.987,2.987,0,0,1-2.23-1.025l-.34.365a3.356,3.356,0,0,0,2.57,1.148,2.164,2.164,0,0,0,2.426-2.053C518.246,663.8,517.492,663.327,516.644,662.95Z" transform="translate(-441.968 -659.13)" fill="#9dcc95"/><path d="M535.493,666.608v-3.349h3.049V662.8h-3.049v-2.877h3.627v-.459h-4.16v7.6h4.275v-.455Z" transform="translate(-454.78 -659.325)" fill="#9dcc95"/><path d="M557.262,659.46H555.09v7.6h.529v-3.492h1.644a4.805,4.805,0,0,0,.549-.033,1.994,1.994,0,0,0,1.955-2.07C559.762,660.017,558.771,659.46,557.262,659.46Zm-.139,3.664h-1.508v-3.217h1.508c1.344,0,2.086.418,2.086,1.562C559.213,662.591,558.467,663.124,557.123,663.124Zm.689.414-.16-.275-.508.156.09.152,2.057,3.492h.615Z" transform="translate(-466.66 -659.325)" fill="#9dcc95"/><path d="M578.893,659.46l-1.41,4.439c-.291.934-.488,1.635-.8,2.557h-.045c-.311-.922-.512-1.623-.8-2.557l-1.41-4.439h-.566l2.508,7.6h.57l2.484-7.6Z" transform="translate(-477.737 -659.325)" fill="#9dcc95"/><path d="M595.89,659.46v7.6h.533v-7.6Z" transform="translate(-490.738 -659.325)" fill="#9dcc95"/><path d="M612.211,665.589a2.447,2.447,0,0,1-1.922.934c-1.635,0-2.652-1.365-2.652-3.48s1.029-3.435,2.7-3.435a2.167,2.167,0,0,1,1.66.783l.307-.352a2.624,2.624,0,0,0-1.975-.91c-1.934,0-3.246,1.512-3.246,3.922s1.307,3.959,3.176,3.959a2.806,2.806,0,0,0,2.262-1.09Z" transform="translate(-497.342 -659.13)" fill="#9dcc95"/><path d="M630.293,666.608v-3.349h3.049V662.8h-3.049v-2.877h3.631v-.459H629.76v7.6h4.283v-.455Z" transform="translate(-510.726 -659.325)" fill="#9dcc95"/><path d="M651.868,662.95l-1.148-.516c-.557-.242-1.316-.574-1.316-1.467,0-.82.676-1.357,1.676-1.357a2.414,2.414,0,0,1,1.812.783l.307-.352a2.9,2.9,0,0,0-2.119-.91A1.992,1.992,0,0,0,648.868,661a2.092,2.092,0,0,0,1.545,1.889l1.152.521c.75.34,1.373.639,1.373,1.59,0,.9-.73,1.525-1.9,1.525a2.987,2.987,0,0,1-2.23-1.025l-.34.365a3.356,3.356,0,0,0,2.57,1.148,2.166,2.166,0,0,0,2.43-2.053C653.47,663.8,652.716,663.327,651.868,662.95Z" transform="translate(-521.768 -659.13)" fill="#9dcc95"/></g><line x1="0.053" y1="0.164" transform="translate(108.34 33.803)" fill="#9dcc95"/><path d="M440.279,321.7a39.832,39.832,0,0,0,2.365,79.593c.221,0,.443,0,.664-.008.1-1.836.2-3.668.3-5.508.111-2.1.2-4.205.307-6.3q.277-5.2.549-10.4c.02-.361.037-.717.057-1.086a.971.971,0,0,1,.971-.918h.016a.955.955,0,0,1,.934.93c.012.422.021.84.029,1.258q.055,2.65.107,5.3c.041,2.082.078,4.164.123,6.246.037,1.963.082,3.926.119,5.89l.086,4.377a39.834,39.834,0,0,0-6.631-79.368Zm15.333,9.906a2.373,2.373,0,0,0,2.16,2.144,2.344,2.344,0,0,0-2.156,2.144,2.349,2.349,0,0,0-2.168-2.139A2.381,2.381,0,0,0,455.611,331.608Zm-7.287,43.112c-.914.02-1.828-.016-2.742-.033-1.217-.021-2.439-.029-3.656-.074a1.265,1.265,0,0,1-1.131-1.7,1.332,1.332,0,0,1,1.291-.873q3.1.049,6.189.111a1.271,1.271,0,0,1,1.283,1.266A1.242,1.242,0,0,1,448.324,374.72Zm6.5-16.452a30.254,30.254,0,0,1-1.791,5.943,30.579,30.579,0,0,1-2.553,4.762,1.771,1.771,0,0,1-1.775.943c-2.578-.107-5.16-.111-7.738-.135-.3,0-.455-.061-.566-.377a19.768,19.768,0,0,0-3.824-6.111,45.264,45.264,0,0,0-7.066-6.451c-1.611-1.2-3.291-2.307-4.947-3.459a.42.42,0,0,1-.168-.213c.541.119,1.094.217,1.627.369a35.459,35.459,0,0,1,5.947,2.283,22.7,22.7,0,0,1,6.967,5.312,37.392,37.392,0,0,1,2.324,3.094c.008.012.016.02.02.029a1.607,1.607,0,0,0,.135.168.4.4,0,0,0,.254.09.422.422,0,0,0,.422-.422.2.2,0,0,0,0-.049c-.029-.074-.057-.143-.09-.217a16.1,16.1,0,0,0-1.791-3.074,25.013,25.013,0,0,0-8.095-6.877,34.749,34.749,0,0,0-9.2-3.517c-.123-.025-.238-.078-.443-.143.471-.525.885-1.037,1.357-1.5a11.787,11.787,0,0,1,4.787-2.992,1.238,1.238,0,0,1,.873.094c1.787,1.07,3.59,2.111,5.3,3.283a20,20,0,0,1,6.263,6.648c.029.053.057.094.082.135a.374.374,0,0,0,.07.094.457.457,0,0,0,.316.127.443.443,0,0,0,.443-.443v-.029a.148.148,0,0,0-.008-.045l-.008-.025-.086-.262v0c-1.553-4.7-4.685-8.291-8.3-11.648,1.254-.41,2.451-.8,3.656-1.18a.44.44,0,0,1,.361.1,36.972,36.972,0,0,1,6.718,7.644,24.245,24.245,0,0,1,3.75,9.287,37.214,37.214,0,0,1,.365,4s.008.131.016.348c.008.193.016.447.016.742,0,.471-.012,1.041-.057,1.57a.014.014,0,0,1,0,.008c0,.066-.012.131-.02.2a.385.385,0,0,0,.721.127c.016-.07.029-.139.041-.209a21.966,21.966,0,0,0,.057-8.213,30.358,30.358,0,0,0-5.943-13.033c-.607-.812-1.2-1.627-1.824-2.43-.193-.25-.43-.467-.7-.758.832-.127,1.631-.275,2.439-.369a21.378,21.378,0,0,1,7.857.332,22.052,22.052,0,0,1,2.762,1.041.668.668,0,0,1,.3.41,34.441,34.441,0,0,1,1.23,7.34A30.847,30.847,0,0,1,454.824,358.268Zm6.549-19.39a4.714,4.714,0,0,0-1.2.557,3.722,3.722,0,0,0-.914.914,4.543,4.543,0,0,0-.566,1.2,10.334,10.334,0,0,0-.287,1.262c-.27-2.635-1.648-3.943-4.23-4.209a4.22,4.22,0,0,0,4.234-4.287c.271,2.59,1.512,3.971,4.2,4.283A10.643,10.643,0,0,0,461.374,338.878Zm.234-2.123a1.524,1.524,0,0,0-1.164-1.2,1.484,1.484,0,0,0,1.148-1.225,1.443,1.443,0,0,0,1.23,1.221A1.391,1.391,0,0,0,461.608,336.755Z" transform="translate(-333.561 -321.633)" fill="#9dcc95"/><path d="M513.981,430.29c0,.066-.012.131-.021.2" transform="translate(-399.156 -385.757)" fill="#9dcc95"/><path d="M515.761,430.57c-.012.07-.025.139-.041.209" transform="translate(-400.195 -385.922)" fill="#9dcc95"/></g></g></svg>