<svg xmlns="http://www.w3.org/2000/svg" width="79.639" height="79.658" viewBox="0 0 79.639 79.658">
  <g id="dustellar-logo" transform="translate(-300.113 -390.635)">
    <g id="Group_16099" data-name="Group 16099" transform="translate(230.85 390.633)">
      <line id="Line_10" data-name="Line 10" x1="0.053" y1="0.164" transform="translate(108.34 33.803)" fill="#9dcc95"/>
      <path id="Path_11597" data-name="Path 11597" d="M440.279,321.7a39.832,39.832,0,0,0,2.365,79.593c.221,0,.443,0,.664-.008.1-1.836.2-3.668.3-5.508.111-2.1.2-4.2.307-6.3q.277-5.2.549-10.4c.02-.361.037-.717.057-1.086a.971.971,0,0,1,.971-.918h.016a.955.955,0,0,1,.934.93c.012.422.021.84.029,1.258q.055,2.65.107,5.3c.041,2.082.078,4.164.123,6.246.037,1.963.082,3.926.119,5.89l.086,4.377a39.834,39.834,0,0,0-6.631-79.368Zm15.333,9.906a2.373,2.373,0,0,0,2.16,2.144,2.344,2.344,0,0,0-2.156,2.144,2.349,2.349,0,0,0-2.168-2.139,2.381,2.381,0,0,0,2.163-2.147Zm-7.287,43.112c-.914.02-1.828-.016-2.742-.033-1.217-.021-2.439-.029-3.656-.074a1.265,1.265,0,0,1-1.131-1.7,1.332,1.332,0,0,1,1.291-.873q3.1.049,6.189.111a1.271,1.271,0,0,1,1.283,1.266,1.242,1.242,0,0,1-1.235,1.305Zm6.5-16.452a30.256,30.256,0,0,1-1.791,5.943,30.578,30.578,0,0,1-2.553,4.762,1.771,1.771,0,0,1-1.775.943c-2.578-.107-5.16-.111-7.738-.135a.488.488,0,0,1-.566-.377,19.767,19.767,0,0,0-3.824-6.111,45.264,45.264,0,0,0-7.066-6.451c-1.611-1.2-3.291-2.307-4.947-3.459a.42.42,0,0,1-.168-.213c.541.119,1.094.217,1.627.369a35.457,35.457,0,0,1,5.947,2.283,22.7,22.7,0,0,1,6.967,5.312,37.393,37.393,0,0,1,2.324,3.094.257.257,0,0,1,.02.029,1.616,1.616,0,0,0,.135.168.4.4,0,0,0,.254.09.422.422,0,0,0,.422-.422.2.2,0,0,0,0-.049c-.029-.074-.057-.143-.09-.217a16.1,16.1,0,0,0-1.791-3.074,25.013,25.013,0,0,0-8.095-6.877,34.75,34.75,0,0,0-9.2-3.517c-.123-.025-.238-.078-.443-.143.471-.525.885-1.037,1.357-1.5a11.787,11.787,0,0,1,4.787-2.992,1.238,1.238,0,0,1,.873.094c1.787,1.07,3.59,2.111,5.3,3.283a20,20,0,0,1,6.263,6.648c.029.053.057.094.082.135a.374.374,0,0,0,.07.094.457.457,0,0,0,.316.127.443.443,0,0,0,.443-.443v-.029a.148.148,0,0,0-.008-.045l-.008-.025-.086-.262h0c-1.553-4.7-4.685-8.291-8.3-11.648,1.254-.41,2.451-.8,3.656-1.18a.44.44,0,0,1,.361.1,36.971,36.971,0,0,1,6.718,7.644,24.245,24.245,0,0,1,3.75,9.287,37.215,37.215,0,0,1,.365,4s.008.131.016.348c.008.193.016.447.016.742,0,.471-.012,1.041-.057,1.57a.015.015,0,0,1,0,.008,1.753,1.753,0,0,1-.02.2.385.385,0,0,0,.721.127c.016-.07.029-.139.041-.209a21.966,21.966,0,0,0,.057-8.213,30.358,30.358,0,0,0-5.943-13.033c-.607-.812-1.2-1.627-1.824-2.43-.193-.25-.43-.467-.7-.758.832-.127,1.631-.275,2.439-.369a21.378,21.378,0,0,1,7.857.332,22.046,22.046,0,0,1,2.762,1.041.668.668,0,0,1,.3.41,34.44,34.44,0,0,1,1.23,7.34,30.846,30.846,0,0,1-.484,7.66Zm6.549-19.39a4.715,4.715,0,0,0-1.2.557,3.723,3.723,0,0,0-.914.914,4.542,4.542,0,0,0-.566,1.2,10.328,10.328,0,0,0-.287,1.262c-.27-2.635-1.648-3.943-4.23-4.209a4.22,4.22,0,0,0,4.234-4.287c.271,2.59,1.512,3.971,4.2,4.283a10.649,10.649,0,0,0-1.237.282Zm.234-2.123a1.524,1.524,0,0,0-1.164-1.2,1.484,1.484,0,0,0,1.148-1.225,1.443,1.443,0,0,0,1.23,1.221,1.391,1.391,0,0,0-1.214,1.206Z" transform="translate(-333.561 -321.633)" fill="#9dcc95"/>
      <path id="Path_11598" data-name="Path 11598" d="M513.981,430.29a1.567,1.567,0,0,1-.021.2" transform="translate(-399.156 -385.757)" fill="#9dcc95"/>
      <path id="Path_11599" data-name="Path 11599" d="M515.761,430.57c-.012.07-.025.139-.041.209" transform="translate(-400.195 -385.922)" fill="#9dcc95"/>
    </g>
  </g>
</svg>
