<svg xmlns="http://www.w3.org/2000/svg" width="18.496" height="19.918" viewBox="0 0 18.496 19.918">
  <g id="Group_39785" data-name="Group 39785" transform="translate(-3278 10613)">
    <g id="Group_104" data-name="Group 104" transform="translate(3278 -10613)">
      <g id="Group_103" data-name="Group 103" transform="translate(0 0)">
        <path id="Path_1099" data-name="Path 1099" d="M17.784,2.224a2.846,2.846,0,0,1,0,5.512V17.782a.711.711,0,1,1-1.423,0V7.735a2.846,2.846,0,0,1,0-5.512V.714a.711.711,0,1,1,1.423,0ZM9.248,16.272a2.846,2.846,0,0,1,0-5.512V.714a.711.711,0,1,1,1.423,0V10.76a2.846,2.846,0,0,1,0,5.512v1.51a.711.711,0,1,1-1.423,0ZM3.557,2.224a2.846,2.846,0,0,1,0,5.512V17.782a.711.711,0,1,1-1.423,0V7.735a2.846,2.846,0,0,1,0-5.512V.714a.711.711,0,1,1,1.423,0ZM2.845,6.4A1.423,1.423,0,1,0,1.423,4.98,1.423,1.423,0,0,0,2.845,6.4Zm7.114,5.691a1.423,1.423,0,1,0,1.423,1.423A1.423,1.423,0,0,0,9.959,12.093ZM17.073,6.4A1.423,1.423,0,1,0,15.65,4.98,1.423,1.423,0,0,0,17.073,6.4Z" transform="translate(18.496) rotate(90)" fill="#d92332" fill-rule="evenodd"/>
      </g>
    </g>
  </g>
</svg>
