<svg id="undraw_location_review_dmxd" xmlns="http://www.w3.org/2000/svg" width="540.316" height="513.917" viewBox="0 0 540.316 513.917">
  <path id="Path_78052" data-name="Path 78052" d="M517.282,470.881A112.19,112.19,0,1,1,629.517,358.69a112.213,112.213,0,0,1-112.235,112.19Zm0-222.244a110.053,110.053,0,1,0,110.1,110.053,110.076,110.076,0,0,0-110.1-110.053Z" transform="translate(-104.787 43.036)" fill="#3f3d56"/>
  <path id="Path_78089" data-name="Path 78089" d="M359.213,389.331l-74.571-88.713-149.685,1.368-90.8,88.443,1.835,1.179h-.655V575.569H359.012V391.608Z" transform="translate(-25.584 -119.953)" fill="#3e3e3e"/>
  <path id="Path_78090" data-name="Path 78090" d="M366.614,300.912l-93.159,109.22V575.674H440.906V389.355Z" transform="translate(-107.478 -120.058)" fill="#ba2835"/>
  <rect id="Rectangle_22543" data-name="Rectangle 22543" width="34.198" height="30.227" transform="translate(233.193 364.068)" fill="#fef6f7"/>
  <rect id="Rectangle_22544" data-name="Rectangle 22544" width="34.198" height="29.748" transform="translate(233.193 311.749)" fill="#fef6f7"/>
  <rect id="Rectangle_22545" data-name="Rectangle 22545" width="34.198" height="30.227" transform="translate(81.215 356.048)" fill="#fff"/>
  <rect id="Rectangle_22546" data-name="Rectangle 22546" width="34.198" height="29.748" transform="translate(81.215 303.728)" fill="#fff"/>
  <rect id="Rectangle_22547" data-name="Rectangle 22547" width="540.316" height="1.286" transform="translate(0 467.629)" fill="#3f3d56"/>
  <path id="Path_78103" data-name="Path 78103" d="M704.984,286.623H477.938a4.21,4.21,0,0,1-4.2-4.2V178.167a4.209,4.209,0,0,1,4.2-4.2H704.984a4.209,4.209,0,0,1,4.2,4.2V282.419A4.21,4.21,0,0,1,704.984,286.623ZM477.938,175.644a2.525,2.525,0,0,0-2.523,2.523V282.419a2.525,2.525,0,0,0,2.523,2.523H704.984a2.525,2.525,0,0,0,2.523-2.523V178.167a2.525,2.525,0,0,0-2.523-2.523Z" transform="translate(-284.746 -107.827)" fill="#e6e6e6"/>
  <circle id="Ellipse_259" data-name="Ellipse 259" cx="17.127" cy="17.127" r="17.127" transform="translate(209.662 85.939)" fill="#ba2835"/>
  <path id="Path_78104" data-name="Path 78104" d="M592.481,213.649a2.855,2.855,0,1,0,0,5.709h134.57a2.855,2.855,0,0,0,0-5.709Z" transform="translate(-326.137 -122.001)" fill="#e6e6e6"/>
  <path id="Path_78105" data-name="Path 78105" d="M592.481,240.292a2.855,2.855,0,1,0,0,5.709h57.906a2.855,2.855,0,0,0,0-5.709Z" transform="translate(-326.137 -131.517)" fill="#e6e6e6"/>
  <path id="Path_78106" data-name="Path 78106" d="M509.912,282.885c-2.171,0-3.938,1.281-3.938,2.854s1.767,2.855,3.938,2.855H695.577c2.171,0,3.938-1.281,3.938-2.855s-1.767-2.854-3.938-2.854Z" transform="translate(-296.261 -146.729)" fill="#e6e6e6"/>
  <path id="Path_78107" data-name="Path 78107" d="M509.912,309.527c-2.171,0-3.938,1.281-3.938,2.855s1.767,2.854,3.938,2.854H695.577c2.171,0,3.938-1.281,3.938-2.854s-1.767-2.855-3.938-2.855Z" transform="translate(-296.261 -156.244)" fill="#e6e6e6"/>
  <circle id="Ellipse_260" data-name="Ellipse 260" cx="30.46" cy="30.46" r="30.46" transform="translate(348.886 0)" fill="#ba2835"/>
  <path id="Path_78108" data-name="Path 78108" d="M579.517,106.078l-9.524-16.5-9.524-16.5h38.1l-9.524,16.5Z" transform="translate(-200.171 -26.103)" fill="#ba2835"/>
  <circle id="Ellipse_261" data-name="Ellipse 261" cx="10.928" cy="10.928" r="10.928" transform="translate(368.663 19.341)" fill="#fef6f7"/>
</svg>
