<svg id="Layer_1" data-name="Layer 1" xmlns="http://www.w3.org/2000/svg" viewBox="0 0 1003.0549 239.6285"><defs><style>.cls-1{fill:#d92332;}</style></defs><path class="cls-1" d="M43.5863,471.3715H136.98a94.5912,94.5912,0,0,1,94.4865,90.2195v8.764A94.5769,94.5769,0,0,1,136.98,660.5744H43.5863V577.7085l34.4931-34.4927,20.6154-20.633,37.8969,37.9146,17.2115,17.2111V590.53H125.3759l-.7406-.7586-25.94-25.9233L72.7537,589.7885v41.4062H136.98a65.2236,65.2236,0,0,0,65.1073-61.5975c.0706-1.1994.1059-2.4161.1059-3.6328s-.0353-2.4334-.1059-3.6329a65.2212,65.2212,0,0,0-65.1073-61.58H72.7537v21.9022H43.5863Z" transform="translate(-43.5863 -471.3715)"/><rect x="210.8007" y="71.6032" width="29.247" height="117.4677"/><path d="M286.9928,513.6027a16.662,16.662,0,0,1-5.1735,12.5166,18.3122,18.3122,0,0,1-25.0748,0,17.3244,17.3244,0,0,1-.0418-24.6575,17.9834,17.9834,0,0,1,25.1584,0A16.6791,16.6791,0,0,1,286.9928,513.6027Z" transform="translate(-43.5863 -471.3715)"/><path d="M401.1225,543.8v10.5763c-9.3038-8.9285-21.3615-13.4343-35.9641-13.4343-16.981,0-31.1451,5.6533-42.0767,16.814-10.91,11.1394-16.4381,25.5337-16.4381,42.7854,0,16.9391,5.57,31.25,16.5425,42.5563,11.0355,11.39,25.2,17.1475,42.0767,17.1475,14.6026,0,26.66-4.5684,35.9641-13.58v7.9481c-.1044,9.012-2.7746,16.4593-7.9272,22.0916s-12.2456,8.3861-21.6747,8.3861h-.4172c-14.0184,0-23.8438-5.0275-30.0394-15.3327l-1.3354-2.2114-26.1387,9.5962,1.7525,3.1916C326.712,700.6737,345.4653,711,371.2078,711c17.607,0,32.0634-5.32,42.9736-15.7709,10.952-10.4931,16.5217-24.1568,16.5217-40.5952V544.3425Zm.5424,57.0753c0,9.2621-3.1918,17.0849-9.45,23.239-6.3,6.1956-13.9767,9.2415-23.4894,9.2624-9.6792-.0209-17.69-3.1085-23.8229-9.1582-6.2792-6.1748-9.3248-13.81-9.3248-23.3432,0-9.5753,3.0039-17.1476,9.2-23.1349,6.2791-6.0912,14.0811-9.0533,23.8438-9.0533,9.3874,0,17.3564,3.0874,23.6147,9.1577C398.5776,583.9781,401.6649,591.5089,401.6649,600.8754Z" transform="translate(-43.5863 -471.3715)"/><path d="M492.66,513.6027a16.72,16.72,0,0,1-5.1526,12.5166,18.3122,18.3122,0,0,1-25.0748,0,17.3241,17.3241,0,0,1-.0418-24.6575,17.9834,17.9834,0,0,1,25.1584,0A16.6564,16.6564,0,0,1,492.66,513.6027Z" transform="translate(-43.5863 -471.3715)"/><rect x="416.4682" y="71.6032" width="29.2679" height="117.4677"/><rect x="475.421" y="21.3912" width="29.4762" height="167.6797"/><rect x="534.3739" y="71.6032" width="29.247" height="117.4677"/><path d="M610.5655,513.6027a16.6623,16.6623,0,0,1-5.1735,12.5166,18.3122,18.3122,0,0,1-25.0748,0,17.3241,17.3241,0,0,1-.0418-24.6575,17.9834,17.9834,0,0,1,25.1584,0A16.6794,16.6794,0,0,1,610.5655,513.6027Z" transform="translate(-43.5863 -471.3715)"/><path d="M725.4566,540.0542v11.3484c-9.4083-9.4706-21.7995-14.2687-36.9236-14.2687-16.5431,0-30.6028,5.9661-41.7844,17.7108-11.119,11.6612-16.7514,26.41-16.7514,43.8287,0,17.5021,5.6324,32.2717,16.7514,43.9538a55.224,55.224,0,0,0,38.6552,17.6276v.1876h3.1292c15.1241,0,27.5153-4.7978,36.9236-14.29v11.3691h29.247V540.0542ZM694.8748,633.24h-2.5659c-9.68,0-17.7114-3.2751-23.8652-9.7212-6.2374-6.5293-9.3874-14.9362-9.3874-24.95,0-10.18,3.0247-18.2741,9.2626-24.6992,6.2786-6.4877,14.06-9.6377,23.76-9.6377a32.0909,32.0909,0,0,1,23.823,9.7836c6.5714,6.5713,9.7627,14.6444,9.7627,24.6577,0,10.0342-3.2748,18.3992-9.7627,24.8869A32.4274,32.4274,0,0,1,694.8748,633.24Z" transform="translate(-43.5863 -471.3715)"/><path d="M809.87,563.9192l.1044-.1045v-.0832C809.933,563.7941,809.9121,563.8565,809.87,563.9192Z" transform="translate(-43.5863 -471.3715)"/><path d="M809.87,563.9192l.1044-.1045v-.0832C809.933,563.7941,809.9121,563.8565,809.87,563.9192Z" transform="translate(-43.5863 -471.3715)"/><path d="M848.4,541.8067c-9.45-1.2516-17.8779.0209-25.0748,3.7965a36.2327,36.2327,0,0,0-10.2217,7.8855V542.9748H783.6272V660.4424h29.4766V607.1011c0-14.8318,3.0039-25.3458,8.9077-31.25s14.2476-7.9478,25.5128-6.2583l3.588.5425V542.1823Zm-38.4256,22.008-.1044.1045c.0418-.0627.0627-.1251.1044-.1877Z" transform="translate(-43.5863 -471.3715)"/><rect x="826.6344" y="71.6032" width="29.2679" height="117.4677"/><path d="M902.8265,513.6027a16.662,16.662,0,0,1-5.1735,12.5166,18.3122,18.3122,0,0,1-25.0748,0,17.3737,17.3737,0,0,1-.0418-24.6575,17.9834,17.9834,0,0,1,25.1584,0A16.6791,16.6791,0,0,1,902.8265,513.6027Z" transform="translate(-43.5863 -471.3715)"/><path d="M1028.8677,554.7821c-11.7444-11.64-26.7229-17.5438-44.5168-17.5438-17.67,0-32.6058,5.945-44.4337,17.6482-11.7867,11.682-17.7527,26.4514-17.7527,43.8913,0,17.523,5.966,32.3344,17.7527,44.0162,11.8279,11.7031,26.7641,17.6484,44.4337,17.6484h.1039c17.6482,0,32.6058-5.9453,44.4129-17.6484,11.7862-11.6818,17.7735-26.4932,17.7735-44.0162S1040.6539,566.4644,1028.8677,554.7821Zm-68.382,19.5051c6.1539-6.4671,14.1855-9.7215,23.8652-9.7215,9.7836,0,17.6274,3.1709,23.99,9.7215,6.3831,6.5919,9.47,14.665,9.47,24.72,0,9.8257-3.0873,17.7944-9.47,24.3865-6.3626,6.55-14.2064,9.7213-23.99,9.7213-9.68,0-17.7113-3.2545-23.8652-9.7213-6.2374-6.5294-9.4083-14.7276-9.4083-24.3865C951.0774,589.119,954.2483,580.8164,960.4857,574.2872Z" transform="translate(-43.5863 -471.3715)"/></svg>